# xmcd
#
# Track frame offsets: 
#        182
#        17665
#        34800
#        50442
#        59540
#        89650
#        132135
#
# Disc length: 2234 seconds
#
# Revision: 3
# Processed by: cddbd v1.5.1PL0 Copyright (c) Steve Scherf et al.
# Submitted via: ExactAudioCopy v0.95a5
#
DISCID=5b08b807
DTITLE=Curtis Mayfield - Curtis Mayfield Live! (02)
DYEAR=1900
DGENRE=Blues
TTITLE0=Check Out Your Mind
TTITLE1=Gypsy Woman
TTITLE2=The Makings Of You
TTITLE3=Rap
TTITLE4=We The People Who Are Darker Than Blue
TTITLE5=(Don't Worry) If There's A Hell Bellow We're All Gonna Go
TTITLE6=Stone Junkie
EXTD=
EXTT0=
EXTT1=
EXTT2=
EXTT3=
EXTT4=
EXTT5=
EXTT6=
PLAYORDER=
